<mxfile host="Electron" agent="Mozilla/5.0 (Windows NT 10.0; Win64; x64) AppleWebKit/537.36 (KHTML, like Gecko) draw.io/26.0.9 Chrome/128.0.6613.186 Electron/32.2.5 Safari/537.36" version="26.0.9">
  <diagram name="Page-1" id="-1sQECvm2pBGC-GRVXuR">
    <mxGraphModel dx="3408" dy="1218" grid="1" gridSize="10" guides="1" tooltips="1" connect="1" arrows="1" fold="1" page="1" pageScale="1" pageWidth="850" pageHeight="1100" math="0" shadow="0">
      <root>
        <mxCell id="0" />
        <mxCell id="1" parent="0" />
        <mxCell id="4El80cXc2V2DPAsKz5zY-1" value="&lt;b&gt;Region&lt;/b&gt;" style="rounded=0;whiteSpace=wrap;html=1;" parent="1" vertex="1">
          <mxGeometry x="-400" y="480" width="90" height="40" as="geometry" />
        </mxCell>
        <mxCell id="4El80cXc2V2DPAsKz5zY-2" value="Region1" style="rounded=0;whiteSpace=wrap;html=1;" parent="1" vertex="1">
          <mxGeometry x="-140" y="290" width="70" height="40" as="geometry" />
        </mxCell>
        <mxCell id="4El80cXc2V2DPAsKz5zY-4" value="Region2" style="rounded=0;whiteSpace=wrap;html=1;" parent="1" vertex="1">
          <mxGeometry x="-140" y="370" width="70" height="40" as="geometry" />
        </mxCell>
        <mxCell id="4El80cXc2V2DPAsKz5zY-5" value="Region3" style="rounded=0;whiteSpace=wrap;html=1;" parent="1" vertex="1">
          <mxGeometry x="-140" y="440" width="70" height="40" as="geometry" />
        </mxCell>
        <mxCell id="4El80cXc2V2DPAsKz5zY-6" value="Region4&lt;span style=&quot;color: rgba(0, 0, 0, 0); font-family: monospace; font-size: 0px; text-align: start; text-wrap: nowrap;&quot;&gt;%3CmxGraphModel%3E%3Croot%3E%3CmxCell%20id%3D%220%22%2F%3E%3CmxCell%20id%3D%221%22%20parent%3D%220%22%2F%3E%3CmxCell%20id%3D%222%22%20value%3D%22Region3%22%20style%3D%22rounded%3D0%3BwhiteSpace%3Dwrap%3Bhtml%3D1%3B%22%20vertex%3D%221%22%20parent%3D%221%22%3E%3CmxGeometry%20x%3D%22-80%22%20y%3D%22470%22%20width%3D%2270%22%20height%3D%2240%22%20as%3D%22geometry%22%2F%3E%3C%2FmxCell%3E%3C%2Froot%3E%3C%2FmxGraphModel%3E&lt;/span&gt;" style="rounded=0;whiteSpace=wrap;html=1;" parent="1" vertex="1">
          <mxGeometry x="-140" y="510" width="70" height="40" as="geometry" />
        </mxCell>
        <mxCell id="4El80cXc2V2DPAsKz5zY-7" value="Region5" style="rounded=0;whiteSpace=wrap;html=1;" parent="1" vertex="1">
          <mxGeometry x="-140" y="580" width="70" height="40" as="geometry" />
        </mxCell>
        <mxCell id="4El80cXc2V2DPAsKz5zY-8" value="Region6" style="rounded=0;whiteSpace=wrap;html=1;" parent="1" vertex="1">
          <mxGeometry x="-140" y="650" width="70" height="40" as="geometry" />
        </mxCell>
        <mxCell id="4El80cXc2V2DPAsKz5zY-9" value="Region7" style="rounded=0;whiteSpace=wrap;html=1;" parent="1" vertex="1">
          <mxGeometry x="-140" y="720" width="70" height="40" as="geometry" />
        </mxCell>
        <mxCell id="4El80cXc2V2DPAsKz5zY-10" value="&lt;b&gt;Trạm Châu Á&lt;/b&gt;" style="rounded=0;whiteSpace=wrap;html=1;" parent="1" vertex="1">
          <mxGeometry x="160" y="170" width="120" height="60" as="geometry" />
        </mxCell>
        <mxCell id="4El80cXc2V2DPAsKz5zY-11" value="&lt;b&gt;Trạm Châu Âu&lt;/b&gt;" style="rounded=0;whiteSpace=wrap;html=1;" parent="1" vertex="1">
          <mxGeometry x="160" y="370" width="120" height="60" as="geometry" />
        </mxCell>
        <mxCell id="4El80cXc2V2DPAsKz5zY-12" value="Trạm Châu Phi" style="rounded=0;whiteSpace=wrap;html=1;" parent="1" vertex="1">
          <mxGeometry x="160" y="540" width="120" height="60" as="geometry" />
        </mxCell>
        <mxCell id="4El80cXc2V2DPAsKz5zY-13" value="Trạm Châu Đại Dương" style="rounded=0;whiteSpace=wrap;html=1;" parent="1" vertex="1">
          <mxGeometry x="160" y="720" width="120" height="60" as="geometry" />
        </mxCell>
        <mxCell id="4El80cXc2V2DPAsKz5zY-14" value="Trạm Trung Đông" style="rounded=0;whiteSpace=wrap;html=1;" parent="1" vertex="1">
          <mxGeometry x="160" y="940" width="120" height="60" as="geometry" />
        </mxCell>
        <mxCell id="4El80cXc2V2DPAsKz5zY-15" value="Trạm Bắc Mỹ" style="rounded=0;whiteSpace=wrap;html=1;" parent="1" vertex="1">
          <mxGeometry x="160" y="1140" width="120" height="60" as="geometry" />
        </mxCell>
        <mxCell id="4El80cXc2V2DPAsKz5zY-16" value="Trạm Nam Mỹ" style="rounded=0;whiteSpace=wrap;html=1;" parent="1" vertex="1">
          <mxGeometry x="160" y="1330" width="120" height="60" as="geometry" />
        </mxCell>
        <mxCell id="4El80cXc2V2DPAsKz5zY-17" value="" style="endArrow=none;html=1;rounded=0;exitX=1;exitY=0.5;exitDx=0;exitDy=0;" parent="1" source="4El80cXc2V2DPAsKz5zY-4" target="4El80cXc2V2DPAsKz5zY-11" edge="1">
          <mxGeometry width="50" height="50" relative="1" as="geometry">
            <mxPoint x="40" y="470" as="sourcePoint" />
            <mxPoint x="90" y="420" as="targetPoint" />
          </mxGeometry>
        </mxCell>
        <mxCell id="4El80cXc2V2DPAsKz5zY-18" value="" style="endArrow=none;html=1;rounded=0;exitX=1;exitY=0.5;exitDx=0;exitDy=0;entryX=0;entryY=0.5;entryDx=0;entryDy=0;" parent="1" source="4El80cXc2V2DPAsKz5zY-2" target="4El80cXc2V2DPAsKz5zY-10" edge="1">
          <mxGeometry width="50" height="50" relative="1" as="geometry">
            <mxPoint x="70" y="350" as="sourcePoint" />
            <mxPoint x="120" y="300" as="targetPoint" />
          </mxGeometry>
        </mxCell>
        <mxCell id="4El80cXc2V2DPAsKz5zY-19" value="" style="endArrow=none;html=1;rounded=0;exitX=1;exitY=0.5;exitDx=0;exitDy=0;entryX=0;entryY=0.5;entryDx=0;entryDy=0;" parent="1" source="4El80cXc2V2DPAsKz5zY-1" target="4El80cXc2V2DPAsKz5zY-2" edge="1">
          <mxGeometry width="50" height="50" relative="1" as="geometry">
            <mxPoint x="-250" y="510" as="sourcePoint" />
            <mxPoint x="-200" y="460" as="targetPoint" />
          </mxGeometry>
        </mxCell>
        <mxCell id="4El80cXc2V2DPAsKz5zY-20" value="" style="endArrow=none;html=1;rounded=0;exitX=1;exitY=0.5;exitDx=0;exitDy=0;entryX=0;entryY=0.5;entryDx=0;entryDy=0;" parent="1" source="4El80cXc2V2DPAsKz5zY-1" target="4El80cXc2V2DPAsKz5zY-4" edge="1">
          <mxGeometry width="50" height="50" relative="1" as="geometry">
            <mxPoint x="-310" y="590" as="sourcePoint" />
            <mxPoint x="-260" y="540" as="targetPoint" />
          </mxGeometry>
        </mxCell>
        <mxCell id="4El80cXc2V2DPAsKz5zY-21" value="" style="endArrow=none;html=1;rounded=0;exitX=1;exitY=0.5;exitDx=0;exitDy=0;entryX=0;entryY=0.5;entryDx=0;entryDy=0;" parent="1" source="4El80cXc2V2DPAsKz5zY-1" target="4El80cXc2V2DPAsKz5zY-5" edge="1">
          <mxGeometry width="50" height="50" relative="1" as="geometry">
            <mxPoint x="-280" y="580" as="sourcePoint" />
            <mxPoint x="-230" y="530" as="targetPoint" />
          </mxGeometry>
        </mxCell>
        <mxCell id="4El80cXc2V2DPAsKz5zY-22" value="" style="endArrow=none;html=1;rounded=0;exitX=1;exitY=0.5;exitDx=0;exitDy=0;entryX=0;entryY=0.5;entryDx=0;entryDy=0;" parent="1" source="4El80cXc2V2DPAsKz5zY-1" target="4El80cXc2V2DPAsKz5zY-6" edge="1">
          <mxGeometry width="50" height="50" relative="1" as="geometry">
            <mxPoint x="-230" y="550" as="sourcePoint" />
            <mxPoint x="-180" y="500" as="targetPoint" />
          </mxGeometry>
        </mxCell>
        <mxCell id="4El80cXc2V2DPAsKz5zY-23" value="" style="endArrow=none;html=1;rounded=0;exitX=1;exitY=0.5;exitDx=0;exitDy=0;entryX=0;entryY=0.5;entryDx=0;entryDy=0;" parent="1" source="4El80cXc2V2DPAsKz5zY-1" target="4El80cXc2V2DPAsKz5zY-7" edge="1">
          <mxGeometry width="50" height="50" relative="1" as="geometry">
            <mxPoint x="-310" y="490" as="sourcePoint" />
            <mxPoint x="-260" y="620" as="targetPoint" />
          </mxGeometry>
        </mxCell>
        <mxCell id="4El80cXc2V2DPAsKz5zY-24" value="" style="endArrow=none;html=1;rounded=0;entryX=1;entryY=0.5;entryDx=0;entryDy=0;exitX=0;exitY=0.5;exitDx=0;exitDy=0;" parent="1" source="4El80cXc2V2DPAsKz5zY-8" target="4El80cXc2V2DPAsKz5zY-1" edge="1">
          <mxGeometry width="50" height="50" relative="1" as="geometry">
            <mxPoint x="-320" y="630" as="sourcePoint" />
            <mxPoint x="-270" y="580" as="targetPoint" />
          </mxGeometry>
        </mxCell>
        <mxCell id="4El80cXc2V2DPAsKz5zY-25" value="" style="endArrow=none;html=1;rounded=0;entryX=1;entryY=0.5;entryDx=0;entryDy=0;exitX=0;exitY=0.5;exitDx=0;exitDy=0;" parent="1" source="4El80cXc2V2DPAsKz5zY-9" target="4El80cXc2V2DPAsKz5zY-1" edge="1">
          <mxGeometry width="50" height="50" relative="1" as="geometry">
            <mxPoint x="-270" y="700" as="sourcePoint" />
            <mxPoint x="-220" y="650" as="targetPoint" />
          </mxGeometry>
        </mxCell>
        <mxCell id="4El80cXc2V2DPAsKz5zY-28" value="&lt;b&gt;Customer&lt;/b&gt;" style="rounded=0;whiteSpace=wrap;html=1;" parent="1" vertex="1">
          <mxGeometry x="-380" y="920" width="95" height="50" as="geometry" />
        </mxCell>
        <mxCell id="4El80cXc2V2DPAsKz5zY-29" value="Customer" style="rounded=0;whiteSpace=wrap;html=1;" parent="1" vertex="1">
          <mxGeometry x="-180" y="920" width="92" height="50" as="geometry" />
        </mxCell>
        <mxCell id="3xGyLqfZxf63mDeyhdR8-1" value="" style="endArrow=none;html=1;rounded=0;exitX=1;exitY=0.5;exitDx=0;exitDy=0;entryX=0;entryY=0.5;entryDx=0;entryDy=0;" edge="1" parent="1" source="4El80cXc2V2DPAsKz5zY-5" target="4El80cXc2V2DPAsKz5zY-12">
          <mxGeometry width="50" height="50" relative="1" as="geometry">
            <mxPoint x="20" y="590" as="sourcePoint" />
            <mxPoint x="70" y="540" as="targetPoint" />
          </mxGeometry>
        </mxCell>
        <mxCell id="3xGyLqfZxf63mDeyhdR8-2" value="" style="endArrow=none;html=1;rounded=0;exitX=1;exitY=0.5;exitDx=0;exitDy=0;" edge="1" parent="1" source="4El80cXc2V2DPAsKz5zY-28" target="4El80cXc2V2DPAsKz5zY-29">
          <mxGeometry width="50" height="50" relative="1" as="geometry">
            <mxPoint x="-200" y="1100" as="sourcePoint" />
            <mxPoint x="-150" y="1050" as="targetPoint" />
          </mxGeometry>
        </mxCell>
        <mxCell id="3xGyLqfZxf63mDeyhdR8-3" value="" style="endArrow=none;html=1;rounded=0;exitX=1;exitY=0.75;exitDx=0;exitDy=0;entryX=0;entryY=0.5;entryDx=0;entryDy=0;" edge="1" parent="1" source="4El80cXc2V2DPAsKz5zY-6" target="4El80cXc2V2DPAsKz5zY-13">
          <mxGeometry width="50" height="50" relative="1" as="geometry">
            <mxPoint x="60" y="600" as="sourcePoint" />
            <mxPoint x="110" y="550" as="targetPoint" />
          </mxGeometry>
        </mxCell>
        <mxCell id="3xGyLqfZxf63mDeyhdR8-5" value="" style="endArrow=none;html=1;rounded=0;exitX=1;exitY=0.5;exitDx=0;exitDy=0;entryX=0;entryY=0.5;entryDx=0;entryDy=0;" edge="1" parent="1" source="4El80cXc2V2DPAsKz5zY-7" target="4El80cXc2V2DPAsKz5zY-14">
          <mxGeometry width="50" height="50" relative="1" as="geometry">
            <mxPoint x="40" y="810" as="sourcePoint" />
            <mxPoint x="90" y="760" as="targetPoint" />
          </mxGeometry>
        </mxCell>
        <mxCell id="3xGyLqfZxf63mDeyhdR8-6" value="" style="endArrow=none;html=1;rounded=0;exitX=1;exitY=0.5;exitDx=0;exitDy=0;entryX=0;entryY=0.75;entryDx=0;entryDy=0;" edge="1" parent="1" source="4El80cXc2V2DPAsKz5zY-8" target="4El80cXc2V2DPAsKz5zY-15">
          <mxGeometry width="50" height="50" relative="1" as="geometry">
            <mxPoint x="-20" y="920" as="sourcePoint" />
            <mxPoint x="30" y="870" as="targetPoint" />
          </mxGeometry>
        </mxCell>
        <mxCell id="3xGyLqfZxf63mDeyhdR8-8" value="" style="endArrow=none;html=1;rounded=0;entryX=0;entryY=0.25;entryDx=0;entryDy=0;" edge="1" parent="1" source="4El80cXc2V2DPAsKz5zY-9" target="4El80cXc2V2DPAsKz5zY-16">
          <mxGeometry width="50" height="50" relative="1" as="geometry">
            <mxPoint x="-30" y="780" as="sourcePoint" />
            <mxPoint x="20" y="730" as="targetPoint" />
          </mxGeometry>
        </mxCell>
        <mxCell id="3xGyLqfZxf63mDeyhdR8-9" value="" style="endArrow=none;html=1;rounded=0;exitX=1;exitY=0.5;exitDx=0;exitDy=0;entryX=0;entryY=0.5;entryDx=0;entryDy=0;" edge="1" parent="1" source="4El80cXc2V2DPAsKz5zY-29" target="4El80cXc2V2DPAsKz5zY-10">
          <mxGeometry width="50" height="50" relative="1" as="geometry">
            <mxPoint x="-70" y="940" as="sourcePoint" />
            <mxPoint x="-20" y="890" as="targetPoint" />
          </mxGeometry>
        </mxCell>
        <mxCell id="3xGyLqfZxf63mDeyhdR8-10" value="" style="endArrow=none;html=1;rounded=0;exitX=1;exitY=0.5;exitDx=0;exitDy=0;entryX=0;entryY=0.5;entryDx=0;entryDy=0;" edge="1" parent="1" source="4El80cXc2V2DPAsKz5zY-29" target="4El80cXc2V2DPAsKz5zY-11">
          <mxGeometry width="50" height="50" relative="1" as="geometry">
            <mxPoint x="-20" y="970" as="sourcePoint" />
            <mxPoint x="30" y="920" as="targetPoint" />
          </mxGeometry>
        </mxCell>
        <mxCell id="3xGyLqfZxf63mDeyhdR8-11" value="" style="endArrow=none;html=1;rounded=0;exitX=1;exitY=0.5;exitDx=0;exitDy=0;entryX=0;entryY=0.5;entryDx=0;entryDy=0;" edge="1" parent="1" source="4El80cXc2V2DPAsKz5zY-29" target="4El80cXc2V2DPAsKz5zY-12">
          <mxGeometry width="50" height="50" relative="1" as="geometry">
            <mxPoint x="-30" y="1000" as="sourcePoint" />
            <mxPoint x="20" y="950" as="targetPoint" />
          </mxGeometry>
        </mxCell>
        <mxCell id="3xGyLqfZxf63mDeyhdR8-12" value="" style="endArrow=none;html=1;rounded=0;exitX=1;exitY=0.5;exitDx=0;exitDy=0;entryX=0;entryY=0.5;entryDx=0;entryDy=0;" edge="1" parent="1" source="4El80cXc2V2DPAsKz5zY-29" target="4El80cXc2V2DPAsKz5zY-13">
          <mxGeometry width="50" height="50" relative="1" as="geometry">
            <mxPoint x="-30" y="1000" as="sourcePoint" />
            <mxPoint x="20" y="950" as="targetPoint" />
          </mxGeometry>
        </mxCell>
        <mxCell id="3xGyLqfZxf63mDeyhdR8-13" value="" style="endArrow=none;html=1;rounded=0;exitX=1;exitY=0.5;exitDx=0;exitDy=0;entryX=0;entryY=0.5;entryDx=0;entryDy=0;" edge="1" parent="1" source="4El80cXc2V2DPAsKz5zY-29" target="4El80cXc2V2DPAsKz5zY-14">
          <mxGeometry width="50" height="50" relative="1" as="geometry">
            <mxPoint x="40" y="1050" as="sourcePoint" />
            <mxPoint x="90" y="1000" as="targetPoint" />
          </mxGeometry>
        </mxCell>
        <mxCell id="3xGyLqfZxf63mDeyhdR8-14" value="" style="endArrow=none;html=1;rounded=0;exitX=1;exitY=0.5;exitDx=0;exitDy=0;entryX=0;entryY=0.5;entryDx=0;entryDy=0;" edge="1" parent="1" source="4El80cXc2V2DPAsKz5zY-29" target="4El80cXc2V2DPAsKz5zY-15">
          <mxGeometry width="50" height="50" relative="1" as="geometry">
            <mxPoint x="-60" y="1080" as="sourcePoint" />
            <mxPoint x="-10" y="1030" as="targetPoint" />
          </mxGeometry>
        </mxCell>
        <mxCell id="3xGyLqfZxf63mDeyhdR8-15" value="" style="endArrow=none;html=1;rounded=0;exitX=1;exitY=0.5;exitDx=0;exitDy=0;entryX=0;entryY=0.25;entryDx=0;entryDy=0;" edge="1" parent="1" source="4El80cXc2V2DPAsKz5zY-29" target="4El80cXc2V2DPAsKz5zY-16">
          <mxGeometry width="50" height="50" relative="1" as="geometry">
            <mxPoint x="-110" y="1170" as="sourcePoint" />
            <mxPoint x="-60" y="1120" as="targetPoint" />
          </mxGeometry>
        </mxCell>
        <mxCell id="3xGyLqfZxf63mDeyhdR8-16" value="&lt;b&gt;Country&lt;/b&gt;" style="rounded=0;whiteSpace=wrap;html=1;" vertex="1" parent="1">
          <mxGeometry x="690" y="200" width="100" height="50" as="geometry" />
        </mxCell>
        <mxCell id="3xGyLqfZxf63mDeyhdR8-17" value="Country1" style="rounded=0;whiteSpace=wrap;html=1;" vertex="1" parent="1">
          <mxGeometry x="510" y="120" width="110" height="20" as="geometry" />
        </mxCell>
        <mxCell id="3xGyLqfZxf63mDeyhdR8-24" value="Country2" style="rounded=0;whiteSpace=wrap;html=1;" vertex="1" parent="1">
          <mxGeometry x="510" y="155" width="110" height="20" as="geometry" />
        </mxCell>
        <mxCell id="3xGyLqfZxf63mDeyhdR8-25" value="Country3" style="rounded=0;whiteSpace=wrap;html=1;" vertex="1" parent="1">
          <mxGeometry x="510" y="190" width="110" height="20" as="geometry" />
        </mxCell>
        <mxCell id="3xGyLqfZxf63mDeyhdR8-26" value="Country4" style="rounded=0;whiteSpace=wrap;html=1;" vertex="1" parent="1">
          <mxGeometry x="510" y="230" width="110" height="20" as="geometry" />
        </mxCell>
        <mxCell id="3xGyLqfZxf63mDeyhdR8-27" value="Country5" style="rounded=0;whiteSpace=wrap;html=1;" vertex="1" parent="1">
          <mxGeometry x="510" y="270" width="110" height="20" as="geometry" />
        </mxCell>
        <mxCell id="3xGyLqfZxf63mDeyhdR8-28" value="Country6" style="rounded=0;whiteSpace=wrap;html=1;" vertex="1" parent="1">
          <mxGeometry x="510" y="310" width="110" height="20" as="geometry" />
        </mxCell>
        <mxCell id="3xGyLqfZxf63mDeyhdR8-29" value="Country7" style="rounded=0;whiteSpace=wrap;html=1;" vertex="1" parent="1">
          <mxGeometry x="510" y="350" width="110" height="20" as="geometry" />
        </mxCell>
        <mxCell id="3xGyLqfZxf63mDeyhdR8-30" value="" style="endArrow=none;html=1;rounded=0;exitX=1;exitY=0.5;exitDx=0;exitDy=0;entryX=0;entryY=0.5;entryDx=0;entryDy=0;" edge="1" parent="1" source="4El80cXc2V2DPAsKz5zY-10" target="3xGyLqfZxf63mDeyhdR8-17">
          <mxGeometry width="50" height="50" relative="1" as="geometry">
            <mxPoint x="280" y="260" as="sourcePoint" />
            <mxPoint x="330" y="210" as="targetPoint" />
          </mxGeometry>
        </mxCell>
        <mxCell id="3xGyLqfZxf63mDeyhdR8-31" value="" style="endArrow=none;html=1;rounded=0;exitX=1;exitY=0.5;exitDx=0;exitDy=0;entryX=0;entryY=0.5;entryDx=0;entryDy=0;" edge="1" parent="1" source="3xGyLqfZxf63mDeyhdR8-17" target="3xGyLqfZxf63mDeyhdR8-16">
          <mxGeometry width="50" height="50" relative="1" as="geometry">
            <mxPoint x="630" y="240" as="sourcePoint" />
            <mxPoint x="680" y="190" as="targetPoint" />
          </mxGeometry>
        </mxCell>
        <mxCell id="3xGyLqfZxf63mDeyhdR8-32" value="" style="endArrow=none;html=1;rounded=0;exitX=1;exitY=0.5;exitDx=0;exitDy=0;entryX=0;entryY=0.5;entryDx=0;entryDy=0;" edge="1" parent="1" source="3xGyLqfZxf63mDeyhdR8-24" target="3xGyLqfZxf63mDeyhdR8-16">
          <mxGeometry width="50" height="50" relative="1" as="geometry">
            <mxPoint x="620" y="260" as="sourcePoint" />
            <mxPoint x="670" y="210" as="targetPoint" />
          </mxGeometry>
        </mxCell>
        <mxCell id="3xGyLqfZxf63mDeyhdR8-33" value="" style="endArrow=none;html=1;rounded=0;exitX=1;exitY=0.5;exitDx=0;exitDy=0;entryX=0;entryY=0.5;entryDx=0;entryDy=0;" edge="1" parent="1" source="3xGyLqfZxf63mDeyhdR8-25" target="3xGyLqfZxf63mDeyhdR8-16">
          <mxGeometry width="50" height="50" relative="1" as="geometry">
            <mxPoint x="660" y="310" as="sourcePoint" />
            <mxPoint x="710" y="260" as="targetPoint" />
          </mxGeometry>
        </mxCell>
        <mxCell id="3xGyLqfZxf63mDeyhdR8-34" value="" style="endArrow=none;html=1;rounded=0;exitX=1;exitY=0.75;exitDx=0;exitDy=0;entryX=0;entryY=0.5;entryDx=0;entryDy=0;" edge="1" parent="1" source="3xGyLqfZxf63mDeyhdR8-26" target="3xGyLqfZxf63mDeyhdR8-16">
          <mxGeometry width="50" height="50" relative="1" as="geometry">
            <mxPoint x="720" y="320" as="sourcePoint" />
            <mxPoint x="770" y="270" as="targetPoint" />
          </mxGeometry>
        </mxCell>
        <mxCell id="3xGyLqfZxf63mDeyhdR8-35" value="" style="endArrow=none;html=1;rounded=0;exitX=1;exitY=0.5;exitDx=0;exitDy=0;entryX=0;entryY=0.5;entryDx=0;entryDy=0;" edge="1" parent="1" source="3xGyLqfZxf63mDeyhdR8-27" target="3xGyLqfZxf63mDeyhdR8-16">
          <mxGeometry width="50" height="50" relative="1" as="geometry">
            <mxPoint x="640" y="340" as="sourcePoint" />
            <mxPoint x="690" y="290" as="targetPoint" />
          </mxGeometry>
        </mxCell>
        <mxCell id="3xGyLqfZxf63mDeyhdR8-36" value="" style="endArrow=none;html=1;rounded=0;exitX=1;exitY=0.5;exitDx=0;exitDy=0;entryX=0;entryY=0.5;entryDx=0;entryDy=0;" edge="1" parent="1" source="3xGyLqfZxf63mDeyhdR8-28" target="3xGyLqfZxf63mDeyhdR8-16">
          <mxGeometry width="50" height="50" relative="1" as="geometry">
            <mxPoint x="660" y="330" as="sourcePoint" />
            <mxPoint x="710" y="280" as="targetPoint" />
          </mxGeometry>
        </mxCell>
        <mxCell id="3xGyLqfZxf63mDeyhdR8-37" value="" style="endArrow=none;html=1;rounded=0;exitX=1;exitY=0.5;exitDx=0;exitDy=0;entryX=0;entryY=0.5;entryDx=0;entryDy=0;" edge="1" parent="1" source="3xGyLqfZxf63mDeyhdR8-29" target="3xGyLqfZxf63mDeyhdR8-16">
          <mxGeometry width="50" height="50" relative="1" as="geometry">
            <mxPoint x="660" y="340" as="sourcePoint" />
            <mxPoint x="710" y="290" as="targetPoint" />
          </mxGeometry>
        </mxCell>
        <mxCell id="3xGyLqfZxf63mDeyhdR8-38" value="" style="endArrow=none;html=1;rounded=0;exitX=1;exitY=0.5;exitDx=0;exitDy=0;entryX=0;entryY=0.5;entryDx=0;entryDy=0;" edge="1" parent="1" source="4El80cXc2V2DPAsKz5zY-11" target="3xGyLqfZxf63mDeyhdR8-24">
          <mxGeometry width="50" height="50" relative="1" as="geometry">
            <mxPoint x="320" y="380" as="sourcePoint" />
            <mxPoint x="370" y="330" as="targetPoint" />
          </mxGeometry>
        </mxCell>
        <mxCell id="3xGyLqfZxf63mDeyhdR8-39" value="" style="endArrow=none;html=1;rounded=0;exitX=1;exitY=0.5;exitDx=0;exitDy=0;entryX=0;entryY=0.5;entryDx=0;entryDy=0;" edge="1" parent="1" source="4El80cXc2V2DPAsKz5zY-12" target="3xGyLqfZxf63mDeyhdR8-25">
          <mxGeometry width="50" height="50" relative="1" as="geometry">
            <mxPoint x="260" y="460" as="sourcePoint" />
            <mxPoint x="310" y="410" as="targetPoint" />
          </mxGeometry>
        </mxCell>
        <mxCell id="3xGyLqfZxf63mDeyhdR8-40" value="" style="endArrow=none;html=1;rounded=0;entryX=0;entryY=0.75;entryDx=0;entryDy=0;exitX=1;exitY=0.5;exitDx=0;exitDy=0;" edge="1" parent="1" source="4El80cXc2V2DPAsKz5zY-13" target="3xGyLqfZxf63mDeyhdR8-26">
          <mxGeometry width="50" height="50" relative="1" as="geometry">
            <mxPoint x="330" y="580" as="sourcePoint" />
            <mxPoint x="380" y="530" as="targetPoint" />
          </mxGeometry>
        </mxCell>
        <mxCell id="3xGyLqfZxf63mDeyhdR8-41" value="" style="endArrow=none;html=1;rounded=0;entryX=0;entryY=0.75;entryDx=0;entryDy=0;exitX=1;exitY=0.5;exitDx=0;exitDy=0;" edge="1" parent="1" source="4El80cXc2V2DPAsKz5zY-14" target="3xGyLqfZxf63mDeyhdR8-27">
          <mxGeometry width="50" height="50" relative="1" as="geometry">
            <mxPoint x="550" y="680" as="sourcePoint" />
            <mxPoint x="600" y="630" as="targetPoint" />
          </mxGeometry>
        </mxCell>
        <mxCell id="3xGyLqfZxf63mDeyhdR8-42" value="" style="endArrow=none;html=1;rounded=0;entryX=0;entryY=1;entryDx=0;entryDy=0;exitX=1;exitY=0;exitDx=0;exitDy=0;" edge="1" parent="1" source="4El80cXc2V2DPAsKz5zY-15" target="3xGyLqfZxf63mDeyhdR8-28">
          <mxGeometry width="50" height="50" relative="1" as="geometry">
            <mxPoint x="550" y="550" as="sourcePoint" />
            <mxPoint x="600" y="500" as="targetPoint" />
          </mxGeometry>
        </mxCell>
        <mxCell id="3xGyLqfZxf63mDeyhdR8-43" value="" style="endArrow=none;html=1;rounded=0;entryX=0;entryY=1;entryDx=0;entryDy=0;exitX=1;exitY=0;exitDx=0;exitDy=0;" edge="1" parent="1" source="4El80cXc2V2DPAsKz5zY-16" target="3xGyLqfZxf63mDeyhdR8-29">
          <mxGeometry width="50" height="50" relative="1" as="geometry">
            <mxPoint x="450" y="590" as="sourcePoint" />
            <mxPoint x="500" y="540" as="targetPoint" />
          </mxGeometry>
        </mxCell>
        <mxCell id="3xGyLqfZxf63mDeyhdR8-44" value="&lt;b&gt;Station&lt;/b&gt;" style="rounded=0;whiteSpace=wrap;html=1;" vertex="1" parent="1">
          <mxGeometry x="690" y="490" width="100" height="50" as="geometry" />
        </mxCell>
        <mxCell id="3xGyLqfZxf63mDeyhdR8-45" value="Station1" style="rounded=0;whiteSpace=wrap;html=1;" vertex="1" parent="1">
          <mxGeometry x="510" y="410" width="110" height="20" as="geometry" />
        </mxCell>
        <mxCell id="3xGyLqfZxf63mDeyhdR8-46" value="Station2" style="rounded=0;whiteSpace=wrap;html=1;" vertex="1" parent="1">
          <mxGeometry x="510" y="445" width="110" height="20" as="geometry" />
        </mxCell>
        <mxCell id="3xGyLqfZxf63mDeyhdR8-47" value="Station3" style="rounded=0;whiteSpace=wrap;html=1;" vertex="1" parent="1">
          <mxGeometry x="510" y="480" width="110" height="20" as="geometry" />
        </mxCell>
        <mxCell id="3xGyLqfZxf63mDeyhdR8-48" value="Station4" style="rounded=0;whiteSpace=wrap;html=1;" vertex="1" parent="1">
          <mxGeometry x="510" y="520" width="110" height="20" as="geometry" />
        </mxCell>
        <mxCell id="3xGyLqfZxf63mDeyhdR8-49" value="Station5" style="rounded=0;whiteSpace=wrap;html=1;" vertex="1" parent="1">
          <mxGeometry x="510" y="560" width="110" height="20" as="geometry" />
        </mxCell>
        <mxCell id="3xGyLqfZxf63mDeyhdR8-50" value="Station6" style="rounded=0;whiteSpace=wrap;html=1;" vertex="1" parent="1">
          <mxGeometry x="510" y="600" width="110" height="20" as="geometry" />
        </mxCell>
        <mxCell id="3xGyLqfZxf63mDeyhdR8-51" value="Station7" style="rounded=0;whiteSpace=wrap;html=1;" vertex="1" parent="1">
          <mxGeometry x="510" y="640" width="110" height="20" as="geometry" />
        </mxCell>
        <mxCell id="3xGyLqfZxf63mDeyhdR8-52" value="" style="endArrow=none;html=1;rounded=0;exitX=1;exitY=0.5;exitDx=0;exitDy=0;entryX=0;entryY=0.5;entryDx=0;entryDy=0;" edge="1" parent="1" source="3xGyLqfZxf63mDeyhdR8-45" target="3xGyLqfZxf63mDeyhdR8-44">
          <mxGeometry width="50" height="50" relative="1" as="geometry">
            <mxPoint x="630" y="530" as="sourcePoint" />
            <mxPoint x="680" y="480" as="targetPoint" />
          </mxGeometry>
        </mxCell>
        <mxCell id="3xGyLqfZxf63mDeyhdR8-53" value="" style="endArrow=none;html=1;rounded=0;exitX=1;exitY=0.5;exitDx=0;exitDy=0;entryX=0;entryY=0.5;entryDx=0;entryDy=0;" edge="1" parent="1" source="3xGyLqfZxf63mDeyhdR8-46" target="3xGyLqfZxf63mDeyhdR8-44">
          <mxGeometry width="50" height="50" relative="1" as="geometry">
            <mxPoint x="620" y="550" as="sourcePoint" />
            <mxPoint x="670" y="500" as="targetPoint" />
          </mxGeometry>
        </mxCell>
        <mxCell id="3xGyLqfZxf63mDeyhdR8-54" value="" style="endArrow=none;html=1;rounded=0;exitX=1;exitY=0.5;exitDx=0;exitDy=0;entryX=0;entryY=0.5;entryDx=0;entryDy=0;" edge="1" parent="1" source="3xGyLqfZxf63mDeyhdR8-47" target="3xGyLqfZxf63mDeyhdR8-44">
          <mxGeometry width="50" height="50" relative="1" as="geometry">
            <mxPoint x="660" y="600" as="sourcePoint" />
            <mxPoint x="710" y="550" as="targetPoint" />
          </mxGeometry>
        </mxCell>
        <mxCell id="3xGyLqfZxf63mDeyhdR8-55" value="" style="endArrow=none;html=1;rounded=0;exitX=1;exitY=0.75;exitDx=0;exitDy=0;entryX=0;entryY=0.5;entryDx=0;entryDy=0;" edge="1" parent="1" source="3xGyLqfZxf63mDeyhdR8-48" target="3xGyLqfZxf63mDeyhdR8-44">
          <mxGeometry width="50" height="50" relative="1" as="geometry">
            <mxPoint x="720" y="610" as="sourcePoint" />
            <mxPoint x="770" y="560" as="targetPoint" />
          </mxGeometry>
        </mxCell>
        <mxCell id="3xGyLqfZxf63mDeyhdR8-56" value="" style="endArrow=none;html=1;rounded=0;exitX=1;exitY=0.5;exitDx=0;exitDy=0;entryX=0;entryY=0.5;entryDx=0;entryDy=0;" edge="1" parent="1" source="3xGyLqfZxf63mDeyhdR8-49" target="3xGyLqfZxf63mDeyhdR8-44">
          <mxGeometry width="50" height="50" relative="1" as="geometry">
            <mxPoint x="640" y="630" as="sourcePoint" />
            <mxPoint x="690" y="580" as="targetPoint" />
          </mxGeometry>
        </mxCell>
        <mxCell id="3xGyLqfZxf63mDeyhdR8-57" value="" style="endArrow=none;html=1;rounded=0;exitX=1;exitY=0.5;exitDx=0;exitDy=0;entryX=0;entryY=0.5;entryDx=0;entryDy=0;" edge="1" parent="1" source="3xGyLqfZxf63mDeyhdR8-50" target="3xGyLqfZxf63mDeyhdR8-44">
          <mxGeometry width="50" height="50" relative="1" as="geometry">
            <mxPoint x="660" y="620" as="sourcePoint" />
            <mxPoint x="710" y="570" as="targetPoint" />
          </mxGeometry>
        </mxCell>
        <mxCell id="3xGyLqfZxf63mDeyhdR8-58" value="" style="endArrow=none;html=1;rounded=0;exitX=1;exitY=0.5;exitDx=0;exitDy=0;entryX=0;entryY=0.5;entryDx=0;entryDy=0;" edge="1" parent="1" source="3xGyLqfZxf63mDeyhdR8-51" target="3xGyLqfZxf63mDeyhdR8-44">
          <mxGeometry width="50" height="50" relative="1" as="geometry">
            <mxPoint x="660" y="630" as="sourcePoint" />
            <mxPoint x="710" y="580" as="targetPoint" />
          </mxGeometry>
        </mxCell>
        <mxCell id="3xGyLqfZxf63mDeyhdR8-60" value="" style="endArrow=none;html=1;rounded=0;exitX=1;exitY=0.5;exitDx=0;exitDy=0;entryX=0;entryY=0.5;entryDx=0;entryDy=0;" edge="1" parent="1" source="4El80cXc2V2DPAsKz5zY-10" target="3xGyLqfZxf63mDeyhdR8-45">
          <mxGeometry width="50" height="50" relative="1" as="geometry">
            <mxPoint x="310" y="280" as="sourcePoint" />
            <mxPoint x="360" y="230" as="targetPoint" />
          </mxGeometry>
        </mxCell>
        <mxCell id="3xGyLqfZxf63mDeyhdR8-61" value="" style="endArrow=none;html=1;rounded=0;exitX=1;exitY=0.5;exitDx=0;exitDy=0;entryX=0;entryY=0.5;entryDx=0;entryDy=0;" edge="1" parent="1" source="4El80cXc2V2DPAsKz5zY-11" target="3xGyLqfZxf63mDeyhdR8-46">
          <mxGeometry width="50" height="50" relative="1" as="geometry">
            <mxPoint x="380" y="500" as="sourcePoint" />
            <mxPoint x="430" y="450" as="targetPoint" />
          </mxGeometry>
        </mxCell>
        <mxCell id="3xGyLqfZxf63mDeyhdR8-62" value="" style="endArrow=none;html=1;rounded=0;exitX=1;exitY=0.5;exitDx=0;exitDy=0;entryX=0;entryY=0.5;entryDx=0;entryDy=0;" edge="1" parent="1" source="4El80cXc2V2DPAsKz5zY-12" target="3xGyLqfZxf63mDeyhdR8-47">
          <mxGeometry width="50" height="50" relative="1" as="geometry">
            <mxPoint x="310" y="600" as="sourcePoint" />
            <mxPoint x="360" y="550" as="targetPoint" />
          </mxGeometry>
        </mxCell>
        <mxCell id="3xGyLqfZxf63mDeyhdR8-63" value="" style="endArrow=none;html=1;rounded=0;exitX=1;exitY=0.5;exitDx=0;exitDy=0;entryX=0;entryY=0.5;entryDx=0;entryDy=0;" edge="1" parent="1" source="4El80cXc2V2DPAsKz5zY-13" target="3xGyLqfZxf63mDeyhdR8-48">
          <mxGeometry width="50" height="50" relative="1" as="geometry">
            <mxPoint x="300" y="700" as="sourcePoint" />
            <mxPoint x="350" y="650" as="targetPoint" />
          </mxGeometry>
        </mxCell>
        <mxCell id="3xGyLqfZxf63mDeyhdR8-64" value="" style="endArrow=none;html=1;rounded=0;exitX=1;exitY=0.5;exitDx=0;exitDy=0;entryX=0;entryY=0.75;entryDx=0;entryDy=0;" edge="1" parent="1" source="4El80cXc2V2DPAsKz5zY-14" target="3xGyLqfZxf63mDeyhdR8-49">
          <mxGeometry width="50" height="50" relative="1" as="geometry">
            <mxPoint x="340" y="940" as="sourcePoint" />
            <mxPoint x="390" y="890" as="targetPoint" />
          </mxGeometry>
        </mxCell>
        <mxCell id="3xGyLqfZxf63mDeyhdR8-65" value="" style="endArrow=none;html=1;rounded=0;exitX=0.991;exitY=0.109;exitDx=0;exitDy=0;exitPerimeter=0;entryX=0;entryY=0.75;entryDx=0;entryDy=0;" edge="1" parent="1" source="4El80cXc2V2DPAsKz5zY-15" target="3xGyLqfZxf63mDeyhdR8-50">
          <mxGeometry width="50" height="50" relative="1" as="geometry">
            <mxPoint x="300" y="1170" as="sourcePoint" />
            <mxPoint x="350" y="1120" as="targetPoint" />
          </mxGeometry>
        </mxCell>
        <mxCell id="3xGyLqfZxf63mDeyhdR8-66" value="" style="endArrow=none;html=1;rounded=0;exitX=0.958;exitY=0.072;exitDx=0;exitDy=0;exitPerimeter=0;entryX=0;entryY=0.75;entryDx=0;entryDy=0;" edge="1" parent="1" source="4El80cXc2V2DPAsKz5zY-16" target="3xGyLqfZxf63mDeyhdR8-51">
          <mxGeometry width="50" height="50" relative="1" as="geometry">
            <mxPoint x="370" y="1330" as="sourcePoint" />
            <mxPoint x="420" y="1280" as="targetPoint" />
          </mxGeometry>
        </mxCell>
        <mxCell id="3xGyLqfZxf63mDeyhdR8-67" value="&lt;b&gt;Order&lt;/b&gt;" style="rounded=0;whiteSpace=wrap;html=1;" vertex="1" parent="1">
          <mxGeometry x="690" y="780" width="100" height="50" as="geometry" />
        </mxCell>
        <mxCell id="3xGyLqfZxf63mDeyhdR8-68" value="Order1" style="rounded=0;whiteSpace=wrap;html=1;" vertex="1" parent="1">
          <mxGeometry x="510" y="700" width="110" height="20" as="geometry" />
        </mxCell>
        <mxCell id="3xGyLqfZxf63mDeyhdR8-69" value="Order2" style="rounded=0;whiteSpace=wrap;html=1;" vertex="1" parent="1">
          <mxGeometry x="510" y="735" width="110" height="20" as="geometry" />
        </mxCell>
        <mxCell id="3xGyLqfZxf63mDeyhdR8-70" value="Order3" style="rounded=0;whiteSpace=wrap;html=1;" vertex="1" parent="1">
          <mxGeometry x="510" y="770" width="110" height="20" as="geometry" />
        </mxCell>
        <mxCell id="3xGyLqfZxf63mDeyhdR8-71" value="Order4" style="rounded=0;whiteSpace=wrap;html=1;" vertex="1" parent="1">
          <mxGeometry x="510" y="810" width="110" height="20" as="geometry" />
        </mxCell>
        <mxCell id="3xGyLqfZxf63mDeyhdR8-72" value="Order5" style="rounded=0;whiteSpace=wrap;html=1;" vertex="1" parent="1">
          <mxGeometry x="510" y="850" width="110" height="20" as="geometry" />
        </mxCell>
        <mxCell id="3xGyLqfZxf63mDeyhdR8-73" value="Order6" style="rounded=0;whiteSpace=wrap;html=1;" vertex="1" parent="1">
          <mxGeometry x="510" y="890" width="110" height="20" as="geometry" />
        </mxCell>
        <mxCell id="3xGyLqfZxf63mDeyhdR8-74" value="Order7" style="rounded=0;whiteSpace=wrap;html=1;" vertex="1" parent="1">
          <mxGeometry x="510" y="930" width="110" height="20" as="geometry" />
        </mxCell>
        <mxCell id="3xGyLqfZxf63mDeyhdR8-75" value="" style="endArrow=none;html=1;rounded=0;exitX=1;exitY=0.5;exitDx=0;exitDy=0;entryX=0;entryY=0.5;entryDx=0;entryDy=0;" edge="1" parent="1" source="3xGyLqfZxf63mDeyhdR8-68" target="3xGyLqfZxf63mDeyhdR8-67">
          <mxGeometry width="50" height="50" relative="1" as="geometry">
            <mxPoint x="630" y="820" as="sourcePoint" />
            <mxPoint x="680" y="770" as="targetPoint" />
          </mxGeometry>
        </mxCell>
        <mxCell id="3xGyLqfZxf63mDeyhdR8-76" value="" style="endArrow=none;html=1;rounded=0;exitX=1;exitY=0.5;exitDx=0;exitDy=0;entryX=0;entryY=0.5;entryDx=0;entryDy=0;" edge="1" parent="1" source="3xGyLqfZxf63mDeyhdR8-69" target="3xGyLqfZxf63mDeyhdR8-67">
          <mxGeometry width="50" height="50" relative="1" as="geometry">
            <mxPoint x="620" y="840" as="sourcePoint" />
            <mxPoint x="670" y="790" as="targetPoint" />
          </mxGeometry>
        </mxCell>
        <mxCell id="3xGyLqfZxf63mDeyhdR8-77" value="" style="endArrow=none;html=1;rounded=0;exitX=1;exitY=0.5;exitDx=0;exitDy=0;entryX=0;entryY=0.5;entryDx=0;entryDy=0;" edge="1" parent="1" source="3xGyLqfZxf63mDeyhdR8-70" target="3xGyLqfZxf63mDeyhdR8-67">
          <mxGeometry width="50" height="50" relative="1" as="geometry">
            <mxPoint x="660" y="890" as="sourcePoint" />
            <mxPoint x="710" y="840" as="targetPoint" />
          </mxGeometry>
        </mxCell>
        <mxCell id="3xGyLqfZxf63mDeyhdR8-78" value="" style="endArrow=none;html=1;rounded=0;exitX=1;exitY=0.75;exitDx=0;exitDy=0;entryX=0;entryY=0.5;entryDx=0;entryDy=0;" edge="1" parent="1" source="3xGyLqfZxf63mDeyhdR8-71" target="3xGyLqfZxf63mDeyhdR8-67">
          <mxGeometry width="50" height="50" relative="1" as="geometry">
            <mxPoint x="720" y="900" as="sourcePoint" />
            <mxPoint x="770" y="850" as="targetPoint" />
          </mxGeometry>
        </mxCell>
        <mxCell id="3xGyLqfZxf63mDeyhdR8-79" value="" style="endArrow=none;html=1;rounded=0;exitX=1;exitY=0.5;exitDx=0;exitDy=0;entryX=0;entryY=0.5;entryDx=0;entryDy=0;" edge="1" parent="1" source="3xGyLqfZxf63mDeyhdR8-72" target="3xGyLqfZxf63mDeyhdR8-67">
          <mxGeometry width="50" height="50" relative="1" as="geometry">
            <mxPoint x="640" y="920" as="sourcePoint" />
            <mxPoint x="690" y="870" as="targetPoint" />
          </mxGeometry>
        </mxCell>
        <mxCell id="3xGyLqfZxf63mDeyhdR8-80" value="" style="endArrow=none;html=1;rounded=0;exitX=1;exitY=0.5;exitDx=0;exitDy=0;entryX=0;entryY=0.5;entryDx=0;entryDy=0;" edge="1" parent="1" source="3xGyLqfZxf63mDeyhdR8-73" target="3xGyLqfZxf63mDeyhdR8-67">
          <mxGeometry width="50" height="50" relative="1" as="geometry">
            <mxPoint x="660" y="910" as="sourcePoint" />
            <mxPoint x="710" y="860" as="targetPoint" />
          </mxGeometry>
        </mxCell>
        <mxCell id="3xGyLqfZxf63mDeyhdR8-81" value="" style="endArrow=none;html=1;rounded=0;exitX=1;exitY=0.5;exitDx=0;exitDy=0;entryX=0;entryY=0.5;entryDx=0;entryDy=0;" edge="1" parent="1" source="3xGyLqfZxf63mDeyhdR8-74" target="3xGyLqfZxf63mDeyhdR8-67">
          <mxGeometry width="50" height="50" relative="1" as="geometry">
            <mxPoint x="660" y="920" as="sourcePoint" />
            <mxPoint x="710" y="870" as="targetPoint" />
          </mxGeometry>
        </mxCell>
        <mxCell id="3xGyLqfZxf63mDeyhdR8-82" value="" style="endArrow=none;html=1;rounded=0;exitX=1;exitY=0.5;exitDx=0;exitDy=0;entryX=0;entryY=0.5;entryDx=0;entryDy=0;" edge="1" parent="1" source="4El80cXc2V2DPAsKz5zY-10" target="3xGyLqfZxf63mDeyhdR8-68">
          <mxGeometry width="50" height="50" relative="1" as="geometry">
            <mxPoint x="670" y="690" as="sourcePoint" />
            <mxPoint x="720" y="640" as="targetPoint" />
          </mxGeometry>
        </mxCell>
        <mxCell id="3xGyLqfZxf63mDeyhdR8-83" value="" style="endArrow=none;html=1;rounded=0;entryX=1;entryY=0.5;entryDx=0;entryDy=0;exitX=0;exitY=0.5;exitDx=0;exitDy=0;" edge="1" parent="1" source="3xGyLqfZxf63mDeyhdR8-69" target="4El80cXc2V2DPAsKz5zY-11">
          <mxGeometry width="50" height="50" relative="1" as="geometry">
            <mxPoint x="330" y="610" as="sourcePoint" />
            <mxPoint x="380" y="560" as="targetPoint" />
          </mxGeometry>
        </mxCell>
        <mxCell id="3xGyLqfZxf63mDeyhdR8-84" value="" style="endArrow=none;html=1;rounded=0;entryX=1;entryY=0.5;entryDx=0;entryDy=0;exitX=0;exitY=0.25;exitDx=0;exitDy=0;" edge="1" parent="1" source="3xGyLqfZxf63mDeyhdR8-70" target="4El80cXc2V2DPAsKz5zY-12">
          <mxGeometry width="50" height="50" relative="1" as="geometry">
            <mxPoint x="210" y="710" as="sourcePoint" />
            <mxPoint x="260" y="660" as="targetPoint" />
          </mxGeometry>
        </mxCell>
        <mxCell id="3xGyLqfZxf63mDeyhdR8-85" value="" style="endArrow=none;html=1;rounded=0;entryX=1;entryY=0.5;entryDx=0;entryDy=0;exitX=0;exitY=0.25;exitDx=0;exitDy=0;" edge="1" parent="1" source="3xGyLqfZxf63mDeyhdR8-71" target="4El80cXc2V2DPAsKz5zY-13">
          <mxGeometry width="50" height="50" relative="1" as="geometry">
            <mxPoint x="220" y="850" as="sourcePoint" />
            <mxPoint x="270" y="800" as="targetPoint" />
          </mxGeometry>
        </mxCell>
        <mxCell id="3xGyLqfZxf63mDeyhdR8-86" value="" style="endArrow=none;html=1;rounded=0;exitX=1;exitY=0.5;exitDx=0;exitDy=0;entryX=0;entryY=0.5;entryDx=0;entryDy=0;" edge="1" parent="1" source="4El80cXc2V2DPAsKz5zY-14" target="3xGyLqfZxf63mDeyhdR8-72">
          <mxGeometry width="50" height="50" relative="1" as="geometry">
            <mxPoint x="370" y="960" as="sourcePoint" />
            <mxPoint x="420" y="910" as="targetPoint" />
          </mxGeometry>
        </mxCell>
        <mxCell id="3xGyLqfZxf63mDeyhdR8-87" value="" style="endArrow=none;html=1;rounded=0;exitX=1;exitY=0;exitDx=0;exitDy=0;entryX=0;entryY=0.5;entryDx=0;entryDy=0;" edge="1" parent="1" source="4El80cXc2V2DPAsKz5zY-15" target="3xGyLqfZxf63mDeyhdR8-73">
          <mxGeometry width="50" height="50" relative="1" as="geometry">
            <mxPoint x="400" y="1030" as="sourcePoint" />
            <mxPoint x="450" y="980" as="targetPoint" />
          </mxGeometry>
        </mxCell>
        <mxCell id="3xGyLqfZxf63mDeyhdR8-88" value="" style="endArrow=none;html=1;rounded=0;exitX=1;exitY=0;exitDx=0;exitDy=0;entryX=0;entryY=0.5;entryDx=0;entryDy=0;" edge="1" parent="1" source="4El80cXc2V2DPAsKz5zY-16" target="3xGyLqfZxf63mDeyhdR8-74">
          <mxGeometry width="50" height="50" relative="1" as="geometry">
            <mxPoint x="470" y="1310" as="sourcePoint" />
            <mxPoint x="520" y="1260" as="targetPoint" />
          </mxGeometry>
        </mxCell>
        <mxCell id="3xGyLqfZxf63mDeyhdR8-89" value="&lt;b&gt;Customs&lt;/b&gt;" style="rounded=0;whiteSpace=wrap;html=1;" vertex="1" parent="1">
          <mxGeometry x="690" y="1090" width="100" height="50" as="geometry" />
        </mxCell>
        <mxCell id="3xGyLqfZxf63mDeyhdR8-90" value="Customs1" style="rounded=0;whiteSpace=wrap;html=1;" vertex="1" parent="1">
          <mxGeometry x="510" y="1010" width="110" height="20" as="geometry" />
        </mxCell>
        <mxCell id="3xGyLqfZxf63mDeyhdR8-91" value="Customs2" style="rounded=0;whiteSpace=wrap;html=1;" vertex="1" parent="1">
          <mxGeometry x="510" y="1045" width="110" height="20" as="geometry" />
        </mxCell>
        <mxCell id="3xGyLqfZxf63mDeyhdR8-92" value="Customs3" style="rounded=0;whiteSpace=wrap;html=1;" vertex="1" parent="1">
          <mxGeometry x="510" y="1080" width="110" height="20" as="geometry" />
        </mxCell>
        <mxCell id="3xGyLqfZxf63mDeyhdR8-93" value="Customs4" style="rounded=0;whiteSpace=wrap;html=1;" vertex="1" parent="1">
          <mxGeometry x="510" y="1120" width="110" height="20" as="geometry" />
        </mxCell>
        <mxCell id="3xGyLqfZxf63mDeyhdR8-94" value="Customs5" style="rounded=0;whiteSpace=wrap;html=1;" vertex="1" parent="1">
          <mxGeometry x="510" y="1160" width="110" height="20" as="geometry" />
        </mxCell>
        <mxCell id="3xGyLqfZxf63mDeyhdR8-95" value="Customs6" style="rounded=0;whiteSpace=wrap;html=1;" vertex="1" parent="1">
          <mxGeometry x="510" y="1200" width="110" height="20" as="geometry" />
        </mxCell>
        <mxCell id="3xGyLqfZxf63mDeyhdR8-96" value="Customs7" style="rounded=0;whiteSpace=wrap;html=1;" vertex="1" parent="1">
          <mxGeometry x="510" y="1240" width="110" height="20" as="geometry" />
        </mxCell>
        <mxCell id="3xGyLqfZxf63mDeyhdR8-97" value="" style="endArrow=none;html=1;rounded=0;exitX=1;exitY=0.5;exitDx=0;exitDy=0;entryX=0;entryY=0.5;entryDx=0;entryDy=0;" edge="1" parent="1" source="3xGyLqfZxf63mDeyhdR8-90" target="3xGyLqfZxf63mDeyhdR8-89">
          <mxGeometry width="50" height="50" relative="1" as="geometry">
            <mxPoint x="630" y="1130" as="sourcePoint" />
            <mxPoint x="680" y="1080" as="targetPoint" />
          </mxGeometry>
        </mxCell>
        <mxCell id="3xGyLqfZxf63mDeyhdR8-98" value="" style="endArrow=none;html=1;rounded=0;exitX=1;exitY=0.5;exitDx=0;exitDy=0;entryX=0;entryY=0.5;entryDx=0;entryDy=0;" edge="1" parent="1" source="3xGyLqfZxf63mDeyhdR8-91" target="3xGyLqfZxf63mDeyhdR8-89">
          <mxGeometry width="50" height="50" relative="1" as="geometry">
            <mxPoint x="620" y="1150" as="sourcePoint" />
            <mxPoint x="670" y="1100" as="targetPoint" />
          </mxGeometry>
        </mxCell>
        <mxCell id="3xGyLqfZxf63mDeyhdR8-99" value="" style="endArrow=none;html=1;rounded=0;exitX=1;exitY=0.5;exitDx=0;exitDy=0;entryX=0;entryY=0.5;entryDx=0;entryDy=0;" edge="1" parent="1" source="3xGyLqfZxf63mDeyhdR8-92" target="3xGyLqfZxf63mDeyhdR8-89">
          <mxGeometry width="50" height="50" relative="1" as="geometry">
            <mxPoint x="660" y="1200" as="sourcePoint" />
            <mxPoint x="710" y="1150" as="targetPoint" />
          </mxGeometry>
        </mxCell>
        <mxCell id="3xGyLqfZxf63mDeyhdR8-100" value="" style="endArrow=none;html=1;rounded=0;exitX=1;exitY=0.75;exitDx=0;exitDy=0;entryX=0;entryY=0.5;entryDx=0;entryDy=0;" edge="1" parent="1" source="3xGyLqfZxf63mDeyhdR8-93" target="3xGyLqfZxf63mDeyhdR8-89">
          <mxGeometry width="50" height="50" relative="1" as="geometry">
            <mxPoint x="720" y="1210" as="sourcePoint" />
            <mxPoint x="770" y="1160" as="targetPoint" />
          </mxGeometry>
        </mxCell>
        <mxCell id="3xGyLqfZxf63mDeyhdR8-101" value="" style="endArrow=none;html=1;rounded=0;exitX=1;exitY=0.5;exitDx=0;exitDy=0;entryX=0;entryY=0.5;entryDx=0;entryDy=0;" edge="1" parent="1" source="3xGyLqfZxf63mDeyhdR8-94" target="3xGyLqfZxf63mDeyhdR8-89">
          <mxGeometry width="50" height="50" relative="1" as="geometry">
            <mxPoint x="640" y="1230" as="sourcePoint" />
            <mxPoint x="690" y="1180" as="targetPoint" />
          </mxGeometry>
        </mxCell>
        <mxCell id="3xGyLqfZxf63mDeyhdR8-102" value="" style="endArrow=none;html=1;rounded=0;exitX=1;exitY=0.5;exitDx=0;exitDy=0;entryX=0;entryY=0.5;entryDx=0;entryDy=0;" edge="1" parent="1" source="3xGyLqfZxf63mDeyhdR8-95" target="3xGyLqfZxf63mDeyhdR8-89">
          <mxGeometry width="50" height="50" relative="1" as="geometry">
            <mxPoint x="660" y="1220" as="sourcePoint" />
            <mxPoint x="710" y="1170" as="targetPoint" />
          </mxGeometry>
        </mxCell>
        <mxCell id="3xGyLqfZxf63mDeyhdR8-103" value="" style="endArrow=none;html=1;rounded=0;exitX=1;exitY=0.5;exitDx=0;exitDy=0;entryX=0;entryY=0.5;entryDx=0;entryDy=0;" edge="1" parent="1" source="3xGyLqfZxf63mDeyhdR8-96" target="3xGyLqfZxf63mDeyhdR8-89">
          <mxGeometry width="50" height="50" relative="1" as="geometry">
            <mxPoint x="660" y="1230" as="sourcePoint" />
            <mxPoint x="710" y="1180" as="targetPoint" />
          </mxGeometry>
        </mxCell>
        <mxCell id="3xGyLqfZxf63mDeyhdR8-104" value="" style="endArrow=none;html=1;rounded=0;exitX=1;exitY=0.5;exitDx=0;exitDy=0;entryX=0;entryY=0;entryDx=0;entryDy=0;" edge="1" parent="1" source="4El80cXc2V2DPAsKz5zY-10" target="3xGyLqfZxf63mDeyhdR8-90">
          <mxGeometry width="50" height="50" relative="1" as="geometry">
            <mxPoint x="340" y="450" as="sourcePoint" />
            <mxPoint x="390" y="400" as="targetPoint" />
          </mxGeometry>
        </mxCell>
        <mxCell id="3xGyLqfZxf63mDeyhdR8-105" value="" style="endArrow=none;html=1;rounded=0;entryX=1;entryY=0.5;entryDx=0;entryDy=0;exitX=0;exitY=0.75;exitDx=0;exitDy=0;" edge="1" parent="1" source="3xGyLqfZxf63mDeyhdR8-91" target="4El80cXc2V2DPAsKz5zY-11">
          <mxGeometry width="50" height="50" relative="1" as="geometry">
            <mxPoint x="430" y="1190" as="sourcePoint" />
            <mxPoint x="480" y="1140" as="targetPoint" />
          </mxGeometry>
        </mxCell>
        <mxCell id="3xGyLqfZxf63mDeyhdR8-106" value="" style="endArrow=none;html=1;rounded=0;entryX=1;entryY=0.5;entryDx=0;entryDy=0;exitX=0;exitY=0.5;exitDx=0;exitDy=0;" edge="1" parent="1" source="3xGyLqfZxf63mDeyhdR8-92" target="4El80cXc2V2DPAsKz5zY-12">
          <mxGeometry width="50" height="50" relative="1" as="geometry">
            <mxPoint x="360" y="1180" as="sourcePoint" />
            <mxPoint x="410" y="1130" as="targetPoint" />
          </mxGeometry>
        </mxCell>
        <mxCell id="3xGyLqfZxf63mDeyhdR8-107" value="" style="endArrow=none;html=1;rounded=0;entryX=1;entryY=0.5;entryDx=0;entryDy=0;exitX=0;exitY=0.5;exitDx=0;exitDy=0;" edge="1" parent="1" source="3xGyLqfZxf63mDeyhdR8-93" target="4El80cXc2V2DPAsKz5zY-13">
          <mxGeometry width="50" height="50" relative="1" as="geometry">
            <mxPoint x="410" y="1210" as="sourcePoint" />
            <mxPoint x="460" y="1160" as="targetPoint" />
          </mxGeometry>
        </mxCell>
        <mxCell id="3xGyLqfZxf63mDeyhdR8-109" value="" style="endArrow=none;html=1;rounded=0;entryX=1;entryY=0.5;entryDx=0;entryDy=0;exitX=0;exitY=0.25;exitDx=0;exitDy=0;" edge="1" parent="1" source="3xGyLqfZxf63mDeyhdR8-94" target="4El80cXc2V2DPAsKz5zY-14">
          <mxGeometry width="50" height="50" relative="1" as="geometry">
            <mxPoint x="420" y="1190" as="sourcePoint" />
            <mxPoint x="470" y="1140" as="targetPoint" />
          </mxGeometry>
        </mxCell>
        <mxCell id="3xGyLqfZxf63mDeyhdR8-110" value="" style="endArrow=none;html=1;rounded=0;exitX=1;exitY=0;exitDx=0;exitDy=0;entryX=0;entryY=0.5;entryDx=0;entryDy=0;" edge="1" parent="1" source="4El80cXc2V2DPAsKz5zY-15" target="3xGyLqfZxf63mDeyhdR8-95">
          <mxGeometry width="50" height="50" relative="1" as="geometry">
            <mxPoint x="380" y="1230" as="sourcePoint" />
            <mxPoint x="430" y="1180" as="targetPoint" />
          </mxGeometry>
        </mxCell>
        <mxCell id="3xGyLqfZxf63mDeyhdR8-111" value="" style="endArrow=none;html=1;rounded=0;exitX=1;exitY=0;exitDx=0;exitDy=0;entryX=0;entryY=0.5;entryDx=0;entryDy=0;" edge="1" parent="1" source="4El80cXc2V2DPAsKz5zY-16" target="3xGyLqfZxf63mDeyhdR8-96">
          <mxGeometry width="50" height="50" relative="1" as="geometry">
            <mxPoint x="300" y="1330" as="sourcePoint" />
            <mxPoint x="350" y="1280" as="targetPoint" />
          </mxGeometry>
        </mxCell>
        <mxCell id="3xGyLqfZxf63mDeyhdR8-112" value="&lt;b&gt;Currency_Exchange&lt;/b&gt;" style="rounded=0;whiteSpace=wrap;html=1;" vertex="1" parent="1">
          <mxGeometry x="-428" y="1205" width="122" height="40" as="geometry" />
        </mxCell>
        <mxCell id="3xGyLqfZxf63mDeyhdR8-113" value="currency_exchange1" style="rounded=0;whiteSpace=wrap;html=1;" vertex="1" parent="1">
          <mxGeometry x="-208" y="1090" width="120" height="30" as="geometry" />
        </mxCell>
        <mxCell id="3xGyLqfZxf63mDeyhdR8-114" value="currency_exchange2" style="rounded=0;whiteSpace=wrap;html=1;" vertex="1" parent="1">
          <mxGeometry x="-208" y="1130" width="120" height="30" as="geometry" />
        </mxCell>
        <mxCell id="3xGyLqfZxf63mDeyhdR8-115" value="currency_exchange3" style="rounded=0;whiteSpace=wrap;html=1;" vertex="1" parent="1">
          <mxGeometry x="-208" y="1165" width="120" height="25" as="geometry" />
        </mxCell>
        <mxCell id="3xGyLqfZxf63mDeyhdR8-116" value="currency_exchange4&lt;span style=&quot;color: rgba(0, 0, 0, 0); font-family: monospace; font-size: 0px; text-align: start; text-wrap: nowrap;&quot;&gt;%3CmxGraphModel%3E%3Croot%3E%3CmxCell%20id%3D%220%22%2F%3E%3CmxCell%20id%3D%221%22%20parent%3D%220%22%2F%3E%3CmxCell%20id%3D%222%22%20value%3D%22Region3%22%20style%3D%22rounded%3D0%3BwhiteSpace%3Dwrap%3Bhtml%3D1%3B%22%20vertex%3D%221%22%20parent%3D%221%22%3E%3CmxGeometry%20x%3D%22-80%22%20y%3D%22470%22%20width%3D%2270%22%20height%3D%2240%22%20as%3D%22geometry%22%2F%3E%3C%2FmxCell%3E%3C%2Froot%3E%3C%2FmxGraphModel%3E&lt;/span&gt;" style="rounded=0;whiteSpace=wrap;html=1;" vertex="1" parent="1">
          <mxGeometry x="-208" y="1205" width="120" height="25" as="geometry" />
        </mxCell>
        <mxCell id="3xGyLqfZxf63mDeyhdR8-117" value="currency_exchange5" style="rounded=0;whiteSpace=wrap;html=1;" vertex="1" parent="1">
          <mxGeometry x="-208" y="1240" width="120" height="25" as="geometry" />
        </mxCell>
        <mxCell id="3xGyLqfZxf63mDeyhdR8-118" value="currency_exchange6" style="rounded=0;whiteSpace=wrap;html=1;" vertex="1" parent="1">
          <mxGeometry x="-208" y="1280" width="120" height="30" as="geometry" />
        </mxCell>
        <mxCell id="3xGyLqfZxf63mDeyhdR8-119" value="currency_exchange7" style="rounded=0;whiteSpace=wrap;html=1;" vertex="1" parent="1">
          <mxGeometry x="-208" y="1330" width="120" height="30" as="geometry" />
        </mxCell>
        <mxCell id="3xGyLqfZxf63mDeyhdR8-120" value="" style="endArrow=none;html=1;rounded=0;exitX=1;exitY=0.5;exitDx=0;exitDy=0;entryX=0;entryY=0.5;entryDx=0;entryDy=0;" edge="1" parent="1" source="3xGyLqfZxf63mDeyhdR8-112" target="3xGyLqfZxf63mDeyhdR8-113">
          <mxGeometry width="50" height="50" relative="1" as="geometry">
            <mxPoint x="-286" y="1330" as="sourcePoint" />
            <mxPoint x="-236" y="1280" as="targetPoint" />
          </mxGeometry>
        </mxCell>
        <mxCell id="3xGyLqfZxf63mDeyhdR8-121" value="" style="endArrow=none;html=1;rounded=0;exitX=1;exitY=0.5;exitDx=0;exitDy=0;entryX=0;entryY=0.5;entryDx=0;entryDy=0;" edge="1" parent="1" source="3xGyLqfZxf63mDeyhdR8-112" target="3xGyLqfZxf63mDeyhdR8-114">
          <mxGeometry width="50" height="50" relative="1" as="geometry">
            <mxPoint x="-346" y="1410" as="sourcePoint" />
            <mxPoint x="-296" y="1360" as="targetPoint" />
          </mxGeometry>
        </mxCell>
        <mxCell id="3xGyLqfZxf63mDeyhdR8-122" value="" style="endArrow=none;html=1;rounded=0;exitX=1;exitY=0.5;exitDx=0;exitDy=0;entryX=0;entryY=0.5;entryDx=0;entryDy=0;" edge="1" parent="1" source="3xGyLqfZxf63mDeyhdR8-112" target="3xGyLqfZxf63mDeyhdR8-115">
          <mxGeometry width="50" height="50" relative="1" as="geometry">
            <mxPoint x="-316" y="1400" as="sourcePoint" />
            <mxPoint x="-266" y="1350" as="targetPoint" />
          </mxGeometry>
        </mxCell>
        <mxCell id="3xGyLqfZxf63mDeyhdR8-123" value="" style="endArrow=none;html=1;rounded=0;exitX=1;exitY=0.5;exitDx=0;exitDy=0;entryX=0;entryY=0.5;entryDx=0;entryDy=0;" edge="1" parent="1" source="3xGyLqfZxf63mDeyhdR8-112" target="3xGyLqfZxf63mDeyhdR8-116">
          <mxGeometry width="50" height="50" relative="1" as="geometry">
            <mxPoint x="-266" y="1370" as="sourcePoint" />
            <mxPoint x="-216" y="1320" as="targetPoint" />
          </mxGeometry>
        </mxCell>
        <mxCell id="3xGyLqfZxf63mDeyhdR8-124" value="" style="endArrow=none;html=1;rounded=0;exitX=1;exitY=0.5;exitDx=0;exitDy=0;entryX=0;entryY=0.5;entryDx=0;entryDy=0;" edge="1" parent="1" source="3xGyLqfZxf63mDeyhdR8-112" target="3xGyLqfZxf63mDeyhdR8-117">
          <mxGeometry width="50" height="50" relative="1" as="geometry">
            <mxPoint x="-346" y="1310" as="sourcePoint" />
            <mxPoint x="-296" y="1440" as="targetPoint" />
          </mxGeometry>
        </mxCell>
        <mxCell id="3xGyLqfZxf63mDeyhdR8-125" value="" style="endArrow=none;html=1;rounded=0;entryX=1;entryY=0.5;entryDx=0;entryDy=0;exitX=0;exitY=0.5;exitDx=0;exitDy=0;" edge="1" parent="1" source="3xGyLqfZxf63mDeyhdR8-118" target="3xGyLqfZxf63mDeyhdR8-112">
          <mxGeometry width="50" height="50" relative="1" as="geometry">
            <mxPoint x="-356" y="1450" as="sourcePoint" />
            <mxPoint x="-306" y="1400" as="targetPoint" />
          </mxGeometry>
        </mxCell>
        <mxCell id="3xGyLqfZxf63mDeyhdR8-126" value="" style="endArrow=none;html=1;rounded=0;entryX=1;entryY=0.5;entryDx=0;entryDy=0;exitX=0;exitY=0.5;exitDx=0;exitDy=0;" edge="1" parent="1" source="3xGyLqfZxf63mDeyhdR8-119" target="3xGyLqfZxf63mDeyhdR8-112">
          <mxGeometry width="50" height="50" relative="1" as="geometry">
            <mxPoint x="-306" y="1520" as="sourcePoint" />
            <mxPoint x="-256" y="1470" as="targetPoint" />
          </mxGeometry>
        </mxCell>
        <mxCell id="3xGyLqfZxf63mDeyhdR8-128" value="" style="endArrow=none;html=1;rounded=0;exitX=1;exitY=0.5;exitDx=0;exitDy=0;entryX=0;entryY=0.5;entryDx=0;entryDy=0;" edge="1" parent="1" source="3xGyLqfZxf63mDeyhdR8-113" target="4El80cXc2V2DPAsKz5zY-10">
          <mxGeometry width="50" height="50" relative="1" as="geometry">
            <mxPoint x="20" y="1100" as="sourcePoint" />
            <mxPoint x="70" y="1050" as="targetPoint" />
          </mxGeometry>
        </mxCell>
        <mxCell id="3xGyLqfZxf63mDeyhdR8-129" value="" style="endArrow=none;html=1;rounded=0;exitX=1;exitY=0.5;exitDx=0;exitDy=0;entryX=0;entryY=0.5;entryDx=0;entryDy=0;" edge="1" parent="1" source="3xGyLqfZxf63mDeyhdR8-114" target="4El80cXc2V2DPAsKz5zY-11">
          <mxGeometry width="50" height="50" relative="1" as="geometry">
            <mxPoint x="-30" y="1210" as="sourcePoint" />
            <mxPoint x="20" y="1160" as="targetPoint" />
          </mxGeometry>
        </mxCell>
        <mxCell id="3xGyLqfZxf63mDeyhdR8-130" value="" style="endArrow=none;html=1;rounded=0;exitX=1;exitY=0.5;exitDx=0;exitDy=0;entryX=0;entryY=0.5;entryDx=0;entryDy=0;" edge="1" parent="1" source="3xGyLqfZxf63mDeyhdR8-115" target="4El80cXc2V2DPAsKz5zY-12">
          <mxGeometry width="50" height="50" relative="1" as="geometry">
            <mxPoint x="-50" y="1210" as="sourcePoint" />
            <mxPoint y="1160" as="targetPoint" />
          </mxGeometry>
        </mxCell>
        <mxCell id="3xGyLqfZxf63mDeyhdR8-131" value="" style="endArrow=none;html=1;rounded=0;exitX=1;exitY=0.5;exitDx=0;exitDy=0;entryX=0;entryY=0.5;entryDx=0;entryDy=0;" edge="1" parent="1" source="3xGyLqfZxf63mDeyhdR8-116" target="4El80cXc2V2DPAsKz5zY-13">
          <mxGeometry width="50" height="50" relative="1" as="geometry">
            <mxPoint x="40" y="1270" as="sourcePoint" />
            <mxPoint x="90" y="1220" as="targetPoint" />
          </mxGeometry>
        </mxCell>
        <mxCell id="3xGyLqfZxf63mDeyhdR8-132" value="" style="endArrow=none;html=1;rounded=0;exitX=1;exitY=0.5;exitDx=0;exitDy=0;entryX=0;entryY=0.5;entryDx=0;entryDy=0;" edge="1" parent="1" source="3xGyLqfZxf63mDeyhdR8-117" target="4El80cXc2V2DPAsKz5zY-14">
          <mxGeometry width="50" height="50" relative="1" as="geometry">
            <mxPoint x="-40" y="1270" as="sourcePoint" />
            <mxPoint x="10" y="1220" as="targetPoint" />
          </mxGeometry>
        </mxCell>
        <mxCell id="3xGyLqfZxf63mDeyhdR8-133" value="" style="endArrow=none;html=1;rounded=0;exitX=1;exitY=0.75;exitDx=0;exitDy=0;entryX=0;entryY=0.75;entryDx=0;entryDy=0;" edge="1" parent="1" source="3xGyLqfZxf63mDeyhdR8-118" target="4El80cXc2V2DPAsKz5zY-15">
          <mxGeometry width="50" height="50" relative="1" as="geometry">
            <mxPoint x="80" y="1310" as="sourcePoint" />
            <mxPoint x="130" y="1260" as="targetPoint" />
          </mxGeometry>
        </mxCell>
        <mxCell id="3xGyLqfZxf63mDeyhdR8-134" value="" style="endArrow=none;html=1;rounded=0;exitX=1;exitY=0.5;exitDx=0;exitDy=0;entryX=0;entryY=0.25;entryDx=0;entryDy=0;" edge="1" parent="1" source="3xGyLqfZxf63mDeyhdR8-119" target="4El80cXc2V2DPAsKz5zY-16">
          <mxGeometry width="50" height="50" relative="1" as="geometry">
            <mxPoint x="110" y="1380" as="sourcePoint" />
            <mxPoint x="160" y="1330" as="targetPoint" />
          </mxGeometry>
        </mxCell>
      </root>
    </mxGraphModel>
  </diagram>
</mxfile>
